<svg width="1440" height="1024" viewBox="0 0 1440 1024" fill="none" xmlns="http://www.w3.org/2000/svg">
<rect width="1440" height="1024" fill="white"/>
<path opacity="0.5" d="M1046.04 906.166C1045.78 906.179 1045.53 906.029 1045.41 905.787C1043.96 902.703 1042.95 901.789 1039.75 900.636C1039.49 900.546 1039.32 900.312 1039.31 900.044C1039.29 899.777 1039.44 899.528 1039.69 899.414C1042.77 897.96 1043.68 896.953 1044.84 893.746C1044.93 893.493 1045.16 893.321 1045.43 893.308C1045.7 893.295 1045.95 893.445 1046.06 893.687C1047.51 896.77 1048.52 897.685 1051.73 898.838C1051.98 898.928 1052.15 899.162 1052.17 899.43C1052.18 899.697 1052.03 899.947 1051.79 900.061C1048.7 901.514 1047.79 902.52 1046.64 905.728C1046.54 905.98 1046.31 906.153 1046.04 906.166Z" fill="#DAF2F4"/>
<path opacity="0.5" d="M1057.3 883.128C1056.87 883.149 1056.47 882.908 1056.29 882.519C1053.96 877.571 1052.34 876.104 1047.2 874.254C1046.79 874.109 1046.51 873.734 1046.49 873.304C1046.47 872.875 1046.71 872.475 1047.1 872.292C1052.05 869.959 1053.52 868.343 1055.37 863.196C1055.51 862.791 1055.89 862.514 1056.32 862.493C1056.75 862.472 1057.15 862.713 1057.33 863.102C1059.66 868.05 1061.28 869.517 1066.43 871.368C1066.83 871.513 1067.11 871.888 1067.13 872.318C1067.15 872.747 1066.91 873.147 1066.52 873.33C1061.57 875.662 1060.1 877.277 1058.25 882.425C1058.11 882.83 1057.73 883.107 1057.3 883.128Z" fill="#DAF2F4"/>
<path d="M291.796 759.602C309.553 781.819 336.063 795.462 363.262 803.785C482.059 840.021 618.114 784.385 732.159 834.326C784.492 857.293 831.511 889.774 882.219 916.434C1049.22 1004.42 1185.53 801.595 1134.44 695.643C1086.8 596.826 1045.53 629.869 1043.72 531.177C1042.35 455.765 1099.99 447.254 1124.07 375.847C1155.33 283.413 1110.94 159.938 1026.78 110.498C942.618 61.058 821.32 85.4651 767.423 166.822C750.479 192.418 739.287 223.146 715.09 241.921C672.448 275.215 611.611 258.13 557.839 251.684C520.045 247.126 481.763 248.732 444.482 256.44C404.966 264.576 363.199 283.1 347.255 320.274C333.688 352.129 343.066 389.115 356.509 420.844C369.952 452.573 387.772 483.927 390.585 518.41C396.838 586.687 346.818 587.751 307.302 620.231C267.786 652.712 260.533 720.113 291.796 759.602Z" fill="#212A3C"/>
<path d="M1057.34 325.885C1057.34 344.392 1042.34 359.394 1023.83 359.394C1005.33 359.394 990.325 344.392 990.325 325.885C990.325 307.379 1005.33 292.377 1023.83 292.377C1042.34 292.377 1057.34 307.379 1057.34 325.885Z" fill="#FF4C4C"/>
<path opacity="0.6" d="M1023.83 301.309C1023.83 299.198 1022.1 297.47 1019.99 297.47H1006.07C1002.79 299.522 999.896 302.124 997.51 305.149H1019.99C1022.1 305.149 1023.83 303.422 1023.83 301.309Z" fill="#A01C2C"/>
<path opacity="0.6" d="M1036.4 337.66C1036.4 339.771 1038.13 341.499 1040.24 341.499H1053.48C1054.75 339.097 1055.74 336.523 1056.39 333.82H1040.24C1038.13 333.82 1036.4 335.548 1036.4 337.66Z" fill="#A01C2C"/>
<path opacity="0.6" d="M1048.84 311.68C1046.73 311.68 1045 313.408 1045 315.52C1045 317.632 1046.73 319.36 1048.84 319.36H1056.7C1056.17 316.67 1055.32 314.097 1054.19 311.68H1048.84Z" fill="#A01C2C"/>
<path opacity="0.6" d="M1008.88 344.202C1008.88 340.344 1005.4 340.363 1005.4 340.363H1003.32C1001.45 340.363 999.92 338.833 999.92 336.964C999.92 335.094 1001.45 333.565 1003.32 333.565H1015.71C1017.82 333.565 1019.55 331.837 1019.55 329.725C1019.55 327.613 1017.82 325.885 1015.71 325.885H990.324C990.324 334.381 993.487 342.135 998.697 348.042H1005.04C1007.16 348.042 1008.88 346.314 1008.88 344.202Z" fill="#A01C2C"/>
<path opacity="0.6" d="M1030.64 347.637C1030.64 349.881 1028.82 351.7 1026.58 351.7C1024.33 351.7 1022.51 349.881 1022.51 347.637C1022.51 345.393 1024.33 343.573 1026.58 343.573C1028.82 343.573 1030.64 345.393 1030.64 347.637Z" fill="#A01C2C"/>
<path opacity="0.6" d="M1014.41 315.283C1014.41 318.247 1012.01 320.65 1009.04 320.65C1006.08 320.65 1003.67 318.247 1003.67 315.283C1003.67 312.319 1006.08 309.917 1009.04 309.917C1012.01 309.917 1014.41 312.319 1014.41 315.283Z" fill="#A01C2C"/>
<circle cx="1056.74" cy="290.582" r="6.58197" fill="#D2DFE6"/>
<path opacity="0.5" d="M380.821 622.557C380.423 622.576 380.053 622.354 379.884 621.993C377.724 617.412 376.228 616.053 371.462 614.341C371.087 614.206 370.83 613.859 370.811 613.461C370.792 613.063 371.015 612.693 371.375 612.523C375.957 610.363 377.315 608.868 379.028 604.101C379.163 603.726 379.51 603.469 379.908 603.45C380.305 603.431 380.675 603.654 380.845 604.014C383.005 608.595 384.501 609.955 389.267 611.668C389.642 611.803 389.899 612.15 389.918 612.547C389.937 612.945 389.715 613.316 389.354 613.485C384.773 615.644 383.414 617.14 381.701 621.907C381.566 622.281 381.219 622.538 380.821 622.557Z" fill="#DAF2F4"/>
<path d="M251.233 753.339C250.878 753.355 250.549 753.157 250.397 752.836C248.473 748.754 247.141 747.543 242.894 746.018C242.56 745.898 242.331 745.588 242.314 745.234C242.297 744.88 242.496 744.55 242.816 744.399C246.899 742.474 248.109 741.141 249.635 736.894C249.755 736.56 250.064 736.332 250.419 736.315C250.773 736.298 251.103 736.496 251.254 736.817C253.179 740.899 254.511 742.11 258.758 743.636C259.092 743.756 259.321 744.066 259.338 744.42C259.355 744.774 259.157 745.104 258.836 745.255C254.754 747.179 253.543 748.512 252.016 752.759C251.897 753.093 251.587 753.322 251.233 753.339Z" fill="#212A3C"/>
<path d="M258.95 679.16C258.696 674.379 261.895 670.678 264.726 668.409C267.926 665.842 272.477 663.449 278.251 661.297C289.61 657.064 304.828 654.068 321.104 652.861C337.379 651.655 352.873 652.373 364.731 654.885C370.759 656.162 375.613 657.858 379.158 659.924C382.291 661.751 386.102 664.932 386.456 669.706C386.81 674.481 383.51 678.188 380.68 680.458C377.479 683.025 372.928 685.417 367.154 687.569C355.796 691.802 340.578 694.798 324.302 696.005C308.027 697.212 292.533 696.493 280.675 693.981C274.647 692.704 259.406 687.774 258.95 679.16ZM362.945 663.319C351.86 660.972 337.227 660.311 321.741 661.459C306.254 662.607 291.879 665.419 281.262 669.376C269.829 673.637 267.472 677.504 267.547 678.523C267.622 679.542 270.525 683.019 282.461 685.547C293.545 687.894 308.178 688.555 323.665 687.407C339.151 686.259 353.527 683.447 364.144 679.491C375.576 675.229 378.029 671.35 377.858 670.343C377.432 667.836 371.084 665.043 362.945 663.319Z" fill="#4F0E87"/>
<path d="M357.151 705.251C340.13 724.276 310.91 725.901 291.885 708.881C272.859 691.86 271.234 662.639 288.254 643.614C305.275 624.589 334.496 622.964 353.521 639.984C372.547 657.005 374.171 686.226 357.151 705.251Z" fill="#CC99FF"/>
<path d="M386.456 669.706C386.101 664.932 382.292 661.751 379.158 659.924C377.87 659.173 376.401 658.469 374.775 657.818C384.918 666.731 375.448 673.619 375.448 673.619C373.441 675.26 369.951 677.326 364.144 679.49C353.527 683.447 339.151 686.259 323.664 687.407C308.179 688.555 293.545 687.895 282.461 685.547C275.793 684.135 271.945 682.428 269.833 681.017C269.833 681.017 260.8 675.743 267.563 666.399C266.526 667.055 265.575 667.727 264.726 668.409C261.895 670.678 258.696 674.38 258.949 679.16C259.406 687.774 274.646 692.705 280.674 693.981C292.532 696.493 308.026 697.212 324.302 696.005C340.578 694.798 355.796 691.802 367.154 687.569C372.928 685.417 377.479 683.024 380.68 680.458C383.51 678.188 386.81 674.48 386.456 669.706Z" fill="#C226FB"/>
<path d="M490.064 652.8H495.104V681H490.064V668.76H475.624V681H470.544V652.8H475.624V664.6H490.064V652.8ZM509.649 681.32C507.649 681.32 505.889 680.907 504.369 680.08C502.876 679.253 501.716 678.067 500.889 676.52C500.062 674.973 499.649 673.173 499.649 671.12C499.649 669.067 500.062 667.28 500.889 665.76C501.716 664.213 502.876 663.027 504.369 662.2C505.889 661.373 507.649 660.96 509.649 660.96C511.649 660.96 513.396 661.373 514.889 662.2C516.409 663.027 517.569 664.213 518.369 665.76C519.196 667.28 519.609 669.067 519.609 671.12C519.609 673.173 519.196 674.973 518.369 676.52C517.569 678.067 516.409 679.253 514.889 680.08C513.396 680.907 511.649 681.32 509.649 681.32ZM509.609 677.44C511.236 677.44 512.476 676.907 513.329 675.84C514.182 674.773 514.609 673.2 514.609 671.12C514.609 669.067 514.182 667.507 513.329 666.44C512.476 665.347 511.249 664.8 509.649 664.8C508.049 664.8 506.809 665.347 505.929 666.44C505.076 667.507 504.649 669.067 504.649 671.12C504.649 673.2 505.076 674.773 505.929 675.84C506.782 676.907 508.009 677.44 509.609 677.44ZM541.697 661.44V681H536.817V678C536.203 679.067 535.377 679.893 534.337 680.48C533.297 681.04 532.123 681.32 530.817 681.32C526.017 681.32 523.617 678.627 523.617 673.24V661.44H528.617V673.28C528.617 674.667 528.897 675.693 529.457 676.36C530.017 677.027 530.897 677.36 532.097 677.36C533.483 677.36 534.59 676.907 535.417 676C536.27 675.067 536.697 673.84 536.697 672.32V661.44H541.697ZM554.101 681.32C552.367 681.32 550.767 681.107 549.301 680.68C547.861 680.253 546.634 679.64 545.621 678.84L547.021 675.36C549.101 676.88 551.487 677.64 554.181 677.64C555.327 677.64 556.194 677.453 556.781 677.08C557.394 676.707 557.701 676.173 557.701 675.48C557.701 674.893 557.487 674.44 557.061 674.12C556.661 673.8 555.927 673.507 554.861 673.24L551.661 672.52C549.847 672.12 548.501 671.467 547.621 670.56C546.741 669.653 546.301 668.48 546.301 667.04C546.301 665.84 546.634 664.787 547.301 663.88C547.994 662.947 548.941 662.227 550.141 661.72C551.367 661.213 552.781 660.96 554.381 660.96C555.767 660.96 557.101 661.173 558.381 661.6C559.687 662.027 560.834 662.627 561.821 663.4L560.421 666.8C558.394 665.333 556.367 664.6 554.341 664.6C553.247 664.6 552.394 664.8 551.781 665.2C551.167 665.6 550.861 666.16 550.861 666.88C550.861 667.413 551.047 667.853 551.421 668.2C551.821 668.547 552.447 668.813 553.301 669L556.621 669.76C558.567 670.187 559.994 670.867 560.901 671.8C561.807 672.707 562.261 673.907 562.261 675.4C562.261 677.213 561.527 678.653 560.061 679.72C558.594 680.787 556.607 681.32 554.101 681.32ZM576.12 677.56C576.706 677.56 577.32 677.52 577.96 677.44L577.72 681.16C576.92 681.24 576.186 681.28 575.52 681.28C572.773 681.28 570.746 680.653 569.44 679.4C568.133 678.12 567.48 676.227 567.48 673.72V665.2H563.72V661.44H567.48V655.6H572.48V661.44H577.64V665.2H572.48V673.64C572.48 676.253 573.693 677.56 576.12 677.56ZM589.805 681.32C587.805 681.32 586.045 680.907 584.525 680.08C583.032 679.253 581.872 678.067 581.045 676.52C580.218 674.973 579.805 673.173 579.805 671.12C579.805 669.067 580.218 667.28 581.045 665.76C581.872 664.213 583.032 663.027 584.525 662.2C586.045 661.373 587.805 660.96 589.805 660.96C591.805 660.96 593.552 661.373 595.045 662.2C596.565 663.027 597.725 664.213 598.525 665.76C599.352 667.28 599.765 669.067 599.765 671.12C599.765 673.173 599.352 674.973 598.525 676.52C597.725 678.067 596.565 679.253 595.045 680.08C593.552 680.907 591.805 681.32 589.805 681.32ZM589.765 677.44C591.392 677.44 592.632 676.907 593.485 675.84C594.338 674.773 594.765 673.2 594.765 671.12C594.765 669.067 594.338 667.507 593.485 666.44C592.632 665.347 591.405 664.8 589.805 664.8C588.205 664.8 586.965 665.347 586.085 666.44C585.232 667.507 584.805 669.067 584.805 671.12C584.805 673.2 585.232 674.773 586.085 675.84C586.938 676.907 588.165 677.44 589.765 677.44ZM615.253 660.96C617.6 660.96 619.346 661.627 620.493 662.96C621.64 664.293 622.213 666.307 622.213 669V681H617.213V669.28C617.213 667.76 616.92 666.653 616.333 665.96C615.773 665.267 614.88 664.92 613.653 664.92C612.213 664.92 611.053 665.373 610.173 666.28C609.32 667.187 608.893 668.4 608.893 669.92V681H603.893V661.44H608.773V664.36C609.44 663.267 610.333 662.427 611.453 661.84C612.573 661.253 613.84 660.96 615.253 660.96ZM632.451 675.48V679.12C632.451 680.507 632.211 681.76 631.731 682.88C631.251 684.027 630.438 685.173 629.291 686.32L627.251 684.72C628.505 683.387 629.225 682.147 629.411 681H626.851V675.48H632.451ZM674.473 661.44H679.353L671.673 681H667.313L662.513 668.4L657.833 681H653.513L645.793 661.44H650.913L655.913 675.04L660.913 661.44H664.513L669.513 675.12L674.473 661.44ZM699.178 672.12H685.858C686.018 673.933 686.565 675.28 687.498 676.16C688.431 677.04 689.765 677.48 691.498 677.48C693.658 677.48 695.631 676.787 697.418 675.4L698.858 678.84C697.951 679.587 696.805 680.187 695.418 680.64C694.058 681.093 692.685 681.32 691.298 681.32C688.098 681.32 685.565 680.413 683.698 678.6C681.858 676.787 680.938 674.307 680.938 671.16C680.938 669.16 681.338 667.387 682.138 665.84C682.938 664.293 684.058 663.093 685.498 662.24C686.965 661.387 688.618 660.96 690.458 660.96C693.151 660.96 695.271 661.827 696.818 663.56C698.391 665.293 699.178 667.68 699.178 670.72V672.12ZM690.578 664.48C689.245 664.48 688.165 664.907 687.338 665.76C686.538 666.613 686.045 667.84 685.858 669.44H694.898C694.845 667.813 694.445 666.587 693.698 665.76C692.951 664.907 691.911 664.48 690.578 664.48ZM725.487 660.96C727.834 660.96 729.581 661.627 730.727 662.96C731.874 664.293 732.447 666.307 732.447 669V681H727.447V669.28C727.447 667.76 727.154 666.653 726.567 665.96C726.007 665.267 725.114 664.92 723.887 664.92C722.447 664.92 721.287 665.373 720.407 666.28C719.554 667.187 719.127 668.4 719.127 669.92V681H714.127V652.8H719.127V664.16C719.794 663.12 720.674 662.333 721.767 661.8C722.887 661.24 724.127 660.96 725.487 660.96ZM745.926 660.96C748.672 660.96 750.712 661.627 752.046 662.96C753.379 664.293 754.046 666.347 754.046 669.12V681H749.286V678C748.832 679.04 748.112 679.853 747.126 680.44C746.166 681.027 745.046 681.32 743.766 681.32C742.459 681.32 741.272 681.053 740.206 680.52C739.139 679.987 738.299 679.253 737.686 678.32C737.072 677.387 736.766 676.347 736.766 675.2C736.766 673.76 737.126 672.627 737.846 671.8C738.592 670.973 739.792 670.373 741.446 670C743.099 669.627 745.379 669.44 748.286 669.44H749.286V668.52C749.286 667.187 748.992 666.227 748.406 665.64C747.846 665.053 746.899 664.76 745.566 664.76C744.526 664.76 743.432 664.947 742.286 665.32C741.166 665.667 740.059 666.16 738.966 666.8L737.566 663.36C738.659 662.667 739.979 662.093 741.526 661.64C743.072 661.187 744.539 660.96 745.926 660.96ZM744.766 677.72C746.099 677.72 747.179 677.28 748.006 676.4C748.859 675.493 749.286 674.333 749.286 672.92V672.08H748.566C746.779 672.08 745.392 672.16 744.406 672.32C743.419 672.48 742.712 672.76 742.286 673.16C741.859 673.56 741.646 674.107 741.646 674.8C741.646 675.653 741.939 676.36 742.526 676.92C743.112 677.453 743.859 677.72 744.766 677.72ZM772.847 661.48H777.767L769.207 681H764.847L756.367 661.48H761.647L767.167 675.28L772.847 661.48ZM797.03 672.12H783.71C783.87 673.933 784.416 675.28 785.35 676.16C786.283 677.04 787.616 677.48 789.35 677.48C791.51 677.48 793.483 676.787 795.27 675.4L796.71 678.84C795.803 679.587 794.656 680.187 793.27 680.64C791.91 681.093 790.536 681.32 789.15 681.32C785.95 681.32 783.416 680.413 781.55 678.6C779.71 676.787 778.79 674.307 778.79 671.16C778.79 669.16 779.19 667.387 779.99 665.84C780.79 664.293 781.91 663.093 783.35 662.24C784.816 661.387 786.47 660.96 788.31 660.96C791.003 660.96 793.123 661.827 794.67 663.56C796.243 665.293 797.03 667.68 797.03 670.72V672.12ZM788.43 664.48C787.096 664.48 786.016 664.907 785.19 665.76C784.39 666.613 783.896 667.84 783.71 669.44H792.75C792.696 667.813 792.296 666.587 791.55 665.76C790.803 664.907 789.763 664.48 788.43 664.48ZM820.379 660.96C823.126 660.96 825.166 661.627 826.499 662.96C827.832 664.293 828.499 666.347 828.499 669.12V681H823.739V678C823.286 679.04 822.566 679.853 821.579 680.44C820.619 681.027 819.499 681.32 818.219 681.32C816.912 681.32 815.726 681.053 814.659 680.52C813.592 679.987 812.752 679.253 812.139 678.32C811.526 677.387 811.219 676.347 811.219 675.2C811.219 673.76 811.579 672.627 812.299 671.8C813.046 670.973 814.246 670.373 815.899 670C817.552 669.627 819.832 669.44 822.739 669.44H823.739V668.52C823.739 667.187 823.446 666.227 822.859 665.64C822.299 665.053 821.352 664.76 820.019 664.76C818.979 664.76 817.886 664.947 816.739 665.32C815.619 665.667 814.512 666.16 813.419 666.8L812.019 663.36C813.112 662.667 814.432 662.093 815.979 661.64C817.526 661.187 818.992 660.96 820.379 660.96ZM819.219 677.72C820.552 677.72 821.632 677.28 822.459 676.4C823.312 675.493 823.739 674.333 823.739 672.92V672.08H823.019C821.232 672.08 819.846 672.16 818.859 672.32C817.872 672.48 817.166 672.76 816.739 673.16C816.312 673.56 816.099 674.107 816.099 674.8C816.099 675.653 816.392 676.36 816.979 676.92C817.566 677.453 818.312 677.72 819.219 677.72ZM855.68 660.96C857.36 660.96 858.853 661.387 860.16 662.24C861.493 663.093 862.52 664.307 863.24 665.88C863.987 667.427 864.36 669.213 864.36 671.24C864.36 673.267 863.987 675.04 863.24 676.56C862.52 678.08 861.507 679.253 860.2 680.08C858.893 680.907 857.387 681.32 855.68 681.32C854.293 681.32 853.053 681.027 851.96 680.44C850.867 679.853 850.027 679.04 849.44 678V688.2H844.44V661.44H849.36V664.4C849.947 663.307 850.787 662.467 851.88 661.88C853 661.267 854.267 660.96 855.68 660.96ZM854.36 677.44C855.933 677.44 857.16 676.907 858.04 675.84C858.92 674.747 859.36 673.213 859.36 671.24C859.36 669.213 858.92 667.64 858.04 666.52C857.16 665.4 855.933 664.84 854.36 664.84C852.76 664.84 851.52 665.387 850.64 666.48C849.787 667.573 849.36 669.133 849.36 671.16C849.36 673.16 849.787 674.707 850.64 675.8C851.52 676.893 852.76 677.44 854.36 677.44ZM881.343 665.12L878.423 665.4C875.117 665.747 873.463 667.427 873.463 670.44V681H868.463V661.44H873.223V664.88C874.237 662.533 876.33 661.253 879.503 661.04L881.023 660.92L881.343 665.12ZM892.305 681.32C890.305 681.32 888.545 680.907 887.025 680.08C885.532 679.253 884.372 678.067 883.545 676.52C882.718 674.973 882.305 673.173 882.305 671.12C882.305 669.067 882.718 667.28 883.545 665.76C884.372 664.213 885.532 663.027 887.025 662.2C888.545 661.373 890.305 660.96 892.305 660.96C894.305 660.96 896.052 661.373 897.545 662.2C899.065 663.027 900.225 664.213 901.025 665.76C901.852 667.28 902.265 669.067 902.265 671.12C902.265 673.173 901.852 674.973 901.025 676.52C900.225 678.067 899.065 679.253 897.545 680.08C896.052 680.907 894.305 681.32 892.305 681.32ZM892.265 677.44C893.892 677.44 895.132 676.907 895.985 675.84C896.838 674.773 897.265 673.2 897.265 671.12C897.265 669.067 896.838 667.507 895.985 666.44C895.132 665.347 893.905 664.8 892.305 664.8C890.705 664.8 889.465 665.347 888.585 666.44C887.732 667.507 887.305 669.067 887.305 671.12C887.305 673.2 887.732 674.773 888.585 675.84C889.438 676.907 890.665 677.44 892.265 677.44ZM917.633 660.96C919.34 660.96 920.846 661.373 922.153 662.2C923.46 663.027 924.473 664.2 925.193 665.72C925.94 667.24 926.313 669.013 926.313 671.04C926.313 673.067 925.94 674.867 925.193 676.44C924.473 677.987 923.446 679.187 922.113 680.04C920.806 680.893 919.313 681.32 917.633 681.32C916.22 681.32 914.953 681.013 913.833 680.4C912.74 679.787 911.9 678.933 911.313 677.84V681H906.393V652.8H911.393V664.28C911.98 663.213 912.82 662.4 913.913 661.84C915.006 661.253 916.246 660.96 917.633 660.96ZM916.313 677.44C917.886 677.44 919.113 676.88 919.993 675.76C920.873 674.64 921.313 673.067 921.313 671.04C921.313 669.04 920.873 667.507 919.993 666.44C919.14 665.373 917.913 664.84 916.313 664.84C914.713 664.84 913.473 665.387 912.593 666.48C911.74 667.547 911.313 669.093 911.313 671.12C911.313 673.147 911.74 674.707 912.593 675.8C913.473 676.893 914.713 677.44 916.313 677.44ZM930.416 681V652.8H935.416V681H930.416ZM957.733 672.12H944.413C944.573 673.933 945.119 675.28 946.053 676.16C946.986 677.04 948.319 677.48 950.053 677.48C952.213 677.48 954.186 676.787 955.973 675.4L957.413 678.84C956.506 679.587 955.359 680.187 953.973 680.64C952.613 681.093 951.239 681.32 949.853 681.32C946.653 681.32 944.119 680.413 942.253 678.6C940.413 676.787 939.493 674.307 939.493 671.16C939.493 669.16 939.893 667.387 940.693 665.84C941.493 664.293 942.613 663.093 944.053 662.24C945.519 661.387 947.173 660.96 949.013 660.96C951.706 660.96 953.826 661.827 955.373 663.56C956.946 665.293 957.733 667.68 957.733 670.72V672.12ZM949.133 664.48C947.799 664.48 946.719 664.907 945.893 665.76C945.093 666.613 944.599 667.84 944.413 669.44H953.453C953.399 667.813 952.999 666.587 952.253 665.76C951.506 664.907 950.466 664.48 949.133 664.48ZM985.063 660.96C987.276 660.96 988.929 661.627 990.023 662.96C991.116 664.267 991.663 666.28 991.663 669V681H986.663V669.2C986.663 667.707 986.409 666.627 985.903 665.96C985.396 665.267 984.583 664.92 983.463 664.92C982.129 664.92 981.089 665.373 980.343 666.28C979.596 667.187 979.223 668.453 979.223 670.08V681H974.223V669.2C974.223 667.707 973.969 666.627 973.463 665.96C972.983 665.267 972.169 664.92 971.023 664.92C969.716 664.92 968.689 665.373 967.943 666.28C967.196 667.187 966.823 668.453 966.823 670.08V681H961.823V661.44H966.703V664.2C967.289 663.133 968.103 662.333 969.143 661.8C970.183 661.24 971.369 660.96 972.703 660.96C975.663 660.96 977.623 662.187 978.583 664.64C979.196 663.493 980.076 662.6 981.223 661.96C982.369 661.293 983.649 660.96 985.063 660.96Z" fill="white"/>
<path d="M627.303 524.005V566.705H599.243V603H544.648V566.705H458.028V525.225L554.408 387.975H599.243V524.005H627.303ZM508.048 524.005H544.648V471.24L508.048 524.005ZM730.884 605.745C704.247 605.745 683.914 596.29 669.884 577.38C655.854 558.47 648.839 531.122 648.839 495.335C648.839 460.158 655.854 433.115 669.884 414.205C684.117 395.295 704.45 385.84 730.884 385.84C757.317 385.84 777.549 395.295 791.579 414.205C805.812 433.115 812.929 460.158 812.929 495.335C812.929 531.122 805.914 558.47 791.884 577.38C777.854 596.29 757.52 605.745 730.884 605.745ZM730.884 563.35C740.644 563.35 747.659 558.063 751.929 547.49C756.199 536.917 758.334 519.532 758.334 495.335C758.334 471.545 756.199 454.465 751.929 444.095C747.659 433.522 740.644 428.235 730.884 428.235C721.124 428.235 714.109 433.522 709.839 444.095C705.569 454.465 703.434 471.545 703.434 495.335C703.434 519.532 705.569 536.917 709.839 547.49C714.109 558.063 721.124 563.35 730.884 563.35ZM1008.31 524.005V566.705H980.255V603H925.66V566.705H839.04V525.225L935.42 387.975H980.255V524.005H1008.31ZM889.06 524.005H925.66V471.24L889.06 524.005Z" fill="#2CC3D5"/>
<path d="M502.895 723.08H504.815L498.911 740H497.231L492.407 726.152L487.583 740H485.927L479.999 723.08H481.991L486.791 737.216L491.711 723.08L493.199 723.104L498.047 737.24L502.895 723.08ZM515.877 734.456H507.333C507.397 735.816 507.765 736.848 508.437 737.552C509.109 738.24 510.061 738.584 511.293 738.584C512.653 738.584 513.901 738.12 515.037 737.192L515.685 738.608C515.173 739.088 514.517 739.472 513.717 739.76C512.917 740.032 512.101 740.168 511.269 740.168C509.445 740.168 508.005 739.632 506.949 738.56C505.909 737.488 505.389 736.008 505.389 734.12C505.389 732.92 505.621 731.864 506.085 730.952C506.549 730.024 507.197 729.304 508.029 728.792C508.877 728.28 509.837 728.024 510.909 728.024C512.461 728.024 513.677 728.536 514.557 729.56C515.437 730.568 515.877 731.96 515.877 733.736V734.456ZM510.933 729.536C509.909 729.536 509.085 729.856 508.461 730.496C507.853 731.136 507.493 732.04 507.381 733.208H514.173C514.141 732.024 513.845 731.12 513.285 730.496C512.725 729.856 511.941 729.536 510.933 729.536ZM529.873 740.168C528.721 740.168 527.721 739.92 526.873 739.424C526.025 738.928 525.369 738.232 524.905 737.336C524.457 736.424 524.233 735.36 524.233 734.144C524.233 732.928 524.465 731.864 524.929 730.952C525.409 730.024 526.073 729.304 526.921 728.792C527.785 728.28 528.793 728.024 529.945 728.024C530.729 728.024 531.497 728.168 532.249 728.456C533.001 728.728 533.609 729.096 534.073 729.56L533.425 731C532.321 730.104 531.201 729.656 530.065 729.656C528.865 729.656 527.929 730.048 527.257 730.832C526.585 731.616 526.249 732.72 526.249 734.144C526.249 735.552 526.585 736.64 527.257 737.408C527.929 738.176 528.865 738.56 530.065 738.56C531.201 738.56 532.321 738.112 533.425 737.216L534.073 738.656C533.577 739.12 532.953 739.488 532.201 739.76C531.449 740.032 530.673 740.168 529.873 740.168ZM541.261 740.168C540.157 740.168 539.181 739.92 538.333 739.424C537.501 738.928 536.853 738.224 536.389 737.312C535.941 736.384 535.717 735.312 535.717 734.096C535.717 732.88 535.941 731.816 536.389 730.904C536.853 729.976 537.501 729.264 538.333 728.768C539.181 728.272 540.157 728.024 541.261 728.024C542.365 728.024 543.341 728.272 544.189 728.768C545.037 729.264 545.685 729.976 546.133 730.904C546.597 731.816 546.829 732.88 546.829 734.096C546.829 735.312 546.597 736.384 546.133 737.312C545.685 738.224 545.037 738.928 544.189 739.424C543.341 739.92 542.365 740.168 541.261 740.168ZM541.261 738.56C542.413 738.56 543.293 738.184 543.901 737.432C544.525 736.664 544.837 735.552 544.837 734.096C544.837 732.672 544.525 731.576 543.901 730.808C543.277 730.024 542.397 729.632 541.261 729.632C540.125 729.632 539.245 730.024 538.621 730.808C537.997 731.576 537.685 732.672 537.685 734.096C537.685 735.536 537.989 736.64 538.597 737.408C539.221 738.176 540.109 738.56 541.261 738.56ZM559.566 728.312V740H557.67V738.008C557.302 738.712 556.782 739.248 556.11 739.616C555.454 739.984 554.71 740.168 553.878 740.168C552.486 740.168 551.438 739.784 550.734 739.016C550.03 738.232 549.678 737.08 549.678 735.56V728.312H551.622V735.512C551.622 736.552 551.83 737.32 552.246 737.816C552.662 738.296 553.318 738.536 554.214 738.536C555.238 738.536 556.062 738.208 556.686 737.552C557.31 736.88 557.622 736 557.622 734.912V728.312H559.566ZM563.179 740V723.08H565.123V740H563.179ZM579.125 723.08V740H577.181V737.864C576.829 738.6 576.309 739.168 575.621 739.568C574.949 739.968 574.157 740.168 573.245 740.168C572.221 740.168 571.317 739.912 570.533 739.4C569.749 738.888 569.141 738.176 568.709 737.264C568.277 736.336 568.061 735.264 568.061 734.048C568.061 732.848 568.277 731.792 568.709 730.88C569.141 729.968 569.749 729.264 570.533 728.768C571.317 728.272 572.221 728.024 573.245 728.024C574.157 728.024 574.949 728.224 575.621 728.624C576.309 729.024 576.829 729.592 577.181 730.328V723.08H579.125ZM573.629 738.56C574.765 738.56 575.637 738.176 576.245 737.408C576.869 736.624 577.181 735.52 577.181 734.096C577.181 732.672 576.869 731.576 576.245 730.808C575.637 730.04 574.765 729.656 573.629 729.656C572.493 729.656 571.605 730.04 570.965 730.808C570.341 731.576 570.029 732.656 570.029 734.048C570.029 735.472 570.341 736.584 570.965 737.384C571.605 738.168 572.493 738.56 573.629 738.56ZM588.606 728.024C591.406 728.024 592.806 729.568 592.806 732.656V740H590.862V732.776C590.862 731.688 590.646 730.896 590.214 730.4C589.798 729.904 589.126 729.656 588.198 729.656C587.126 729.656 586.27 729.984 585.63 730.64C584.99 731.296 584.67 732.184 584.67 733.304V740H582.726V728.312H584.646V730.232C585.03 729.512 585.566 728.968 586.254 728.6C586.942 728.216 587.726 728.024 588.606 728.024ZM596.582 729.728L596.054 723.08H598.358L597.878 729.728H596.582ZM606.799 738.608C607.151 738.608 607.503 738.584 607.855 738.536L607.759 740.072C607.391 740.136 606.991 740.168 606.559 740.168C605.151 740.168 604.087 739.8 603.367 739.064C602.663 738.328 602.311 737.304 602.311 735.992V729.848H600.031V728.312H602.311V724.76H604.255V728.312H607.567V729.848H604.255V735.848C604.255 737.688 605.103 738.608 606.799 738.608ZM618.599 728.312H625.799V740H623.855V729.848H618.599V740H616.655V729.848H614.375V728.312H616.655V727.928C616.655 726.36 617.047 725.176 617.831 724.376C618.615 723.576 619.815 723.136 621.431 723.056L622.319 723.008L622.439 724.52L621.335 724.592C620.375 724.656 619.679 724.936 619.247 725.432C618.815 725.928 618.599 726.672 618.599 727.664V728.312ZM623.639 723.224H626.039V725.456H623.639V723.224ZM635.293 728.024C638.093 728.024 639.493 729.568 639.493 732.656V740H637.549V732.776C637.549 731.688 637.333 730.896 636.901 730.4C636.485 729.904 635.813 729.656 634.885 729.656C633.813 729.656 632.957 729.984 632.317 730.64C631.677 731.296 631.357 732.184 631.357 733.304V740H629.413V728.312H631.333V730.232C631.717 729.512 632.253 728.968 632.941 728.6C633.629 728.216 634.413 728.024 635.293 728.024ZM653.422 723.08V740H651.478V737.864C651.126 738.6 650.606 739.168 649.918 739.568C649.246 739.968 648.454 740.168 647.542 740.168C646.518 740.168 645.614 739.912 644.83 739.4C644.046 738.888 643.438 738.176 643.006 737.264C642.574 736.336 642.358 735.264 642.358 734.048C642.358 732.848 642.574 731.792 643.006 730.88C643.438 729.968 644.046 729.264 644.83 728.768C645.614 728.272 646.518 728.024 647.542 728.024C648.454 728.024 649.246 728.224 649.918 728.624C650.606 729.024 651.126 729.592 651.478 730.328V723.08H653.422ZM647.926 738.56C649.062 738.56 649.934 738.176 650.542 737.408C651.166 736.624 651.478 735.52 651.478 734.096C651.478 732.672 651.166 731.576 650.542 730.808C649.934 730.04 649.062 729.656 647.926 729.656C646.79 729.656 645.902 730.04 645.262 730.808C644.638 731.576 644.326 732.656 644.326 734.048C644.326 735.472 644.638 736.584 645.262 737.384C645.902 738.168 646.79 738.56 647.926 738.56ZM668.346 738.608C668.698 738.608 669.05 738.584 669.402 738.536L669.306 740.072C668.938 740.136 668.538 740.168 668.106 740.168C666.698 740.168 665.634 739.8 664.914 739.064C664.21 738.328 663.858 737.304 663.858 735.992V729.848H661.578V728.312H663.858V724.76H665.802V728.312H669.114V729.848H665.802V735.848C665.802 737.688 666.65 738.608 668.346 738.608ZM677.246 728.024C680.046 728.024 681.446 729.568 681.446 732.656V740H679.502V732.776C679.502 731.688 679.286 730.896 678.854 730.4C678.438 729.904 677.766 729.656 676.838 729.656C675.766 729.656 674.91 729.984 674.27 730.64C673.63 731.296 673.31 732.184 673.31 733.304V740H671.366V723.08H673.31V730.184C673.694 729.48 674.222 728.944 674.894 728.576C675.582 728.208 676.366 728.024 677.246 728.024ZM694.799 734.456H686.255C686.319 735.816 686.687 736.848 687.359 737.552C688.031 738.24 688.983 738.584 690.215 738.584C691.575 738.584 692.823 738.12 693.959 737.192L694.607 738.608C694.095 739.088 693.439 739.472 692.639 739.76C691.839 740.032 691.023 740.168 690.191 740.168C688.367 740.168 686.927 739.632 685.871 738.56C684.831 737.488 684.311 736.008 684.311 734.12C684.311 732.92 684.543 731.864 685.007 730.952C685.471 730.024 686.119 729.304 686.951 728.792C687.799 728.28 688.759 728.024 689.831 728.024C691.383 728.024 692.599 728.536 693.479 729.56C694.359 730.568 694.799 731.96 694.799 733.736V734.456ZM689.855 729.536C688.831 729.536 688.007 729.856 687.383 730.496C686.775 731.136 686.415 732.04 686.303 733.208H693.095C693.063 732.024 692.767 731.12 692.207 730.496C691.647 729.856 690.863 729.536 689.855 729.536ZM709.731 728.024C710.755 728.024 711.659 728.28 712.443 728.792C713.227 729.304 713.835 730.024 714.267 730.952C714.699 731.864 714.915 732.928 714.915 734.144C714.915 735.36 714.699 736.424 714.267 737.336C713.835 738.232 713.227 738.928 712.443 739.424C711.675 739.92 710.771 740.168 709.731 740.168C708.819 740.168 708.019 739.968 707.331 739.568C706.659 739.168 706.147 738.6 705.795 737.864V744.32H703.851V728.312H705.795V730.328C706.147 729.592 706.659 729.024 707.331 728.624C708.019 728.224 708.819 728.024 709.731 728.024ZM709.347 738.56C710.483 738.56 711.363 738.176 711.987 737.408C712.611 736.64 712.923 735.552 712.923 734.144C712.923 732.736 712.611 731.64 711.987 730.856C711.363 730.056 710.483 729.656 709.347 729.656C708.211 729.656 707.331 730.04 706.707 730.808C706.099 731.576 705.795 732.672 705.795 734.096C705.795 735.52 706.099 736.624 706.707 737.408C707.331 738.176 708.211 738.56 709.347 738.56ZM722.572 728.024C724.06 728.024 725.164 728.408 725.884 729.176C726.62 729.928 726.988 731.08 726.988 732.632V740H725.092V738.008C724.788 738.696 724.324 739.232 723.7 739.616C723.076 739.984 722.356 740.168 721.54 740.168C720.788 740.168 720.092 740.016 719.452 739.712C718.828 739.408 718.332 738.984 717.964 738.44C717.596 737.896 717.412 737.296 717.412 736.64C717.412 735.76 717.636 735.08 718.084 734.6C718.532 734.104 719.268 733.752 720.292 733.544C721.316 733.32 722.74 733.208 724.564 733.208H725.092V732.416C725.092 731.44 724.892 730.736 724.492 730.304C724.092 729.856 723.444 729.632 722.548 729.632C721.204 729.632 719.868 730.048 718.54 730.88L717.892 729.464C718.5 729.032 719.228 728.688 720.076 728.432C720.94 728.16 721.772 728.024 722.572 728.024ZM721.804 738.632C722.764 738.632 723.548 738.312 724.156 737.672C724.78 737.016 725.092 736.176 725.092 735.152V734.456H724.66C723.252 734.456 722.18 734.52 721.444 734.648C720.708 734.76 720.18 734.96 719.86 735.248C719.556 735.52 719.404 735.928 719.404 736.472C719.404 737.096 719.628 737.616 720.076 738.032C720.54 738.432 721.116 738.632 721.804 738.632ZM741.01 728.312V739.208C741.01 740.952 740.562 742.264 739.666 743.144C738.77 744.04 737.442 744.488 735.682 744.488C733.634 744.488 731.914 743.96 730.522 742.904L731.17 741.464C731.954 741.976 732.69 742.344 733.378 742.568C734.066 742.792 734.834 742.904 735.682 742.904C736.802 742.904 737.65 742.6 738.226 741.992C738.802 741.4 739.09 740.528 739.09 739.376V737.312C738.754 738.064 738.234 738.64 737.53 739.04C736.842 739.44 736.026 739.64 735.082 739.64C734.058 739.64 733.146 739.4 732.346 738.92C731.562 738.44 730.946 737.76 730.498 736.88C730.066 736 729.85 734.984 729.85 733.832C729.85 732.68 730.066 731.664 730.498 730.784C730.946 729.904 731.562 729.224 732.346 728.744C733.146 728.264 734.058 728.024 735.082 728.024C736.01 728.024 736.818 728.224 737.506 728.624C738.194 729.024 738.714 729.592 739.066 730.328V728.312H741.01ZM735.466 738.032C736.586 738.032 737.466 737.664 738.106 736.928C738.746 736.176 739.066 735.144 739.066 733.832C739.066 732.536 738.746 731.52 738.106 730.784C737.482 730.032 736.602 729.656 735.466 729.656C734.33 729.656 733.434 730.032 732.778 730.784C732.138 731.52 731.818 732.536 731.818 733.832C731.818 735.144 732.138 736.176 732.778 736.928C733.434 737.664 734.33 738.032 735.466 738.032ZM754.401 734.456H745.857C745.921 735.816 746.289 736.848 746.961 737.552C747.633 738.24 748.585 738.584 749.817 738.584C751.177 738.584 752.425 738.12 753.561 737.192L754.209 738.608C753.697 739.088 753.041 739.472 752.241 739.76C751.441 740.032 750.625 740.168 749.793 740.168C747.969 740.168 746.529 739.632 745.473 738.56C744.433 737.488 743.913 736.008 743.913 734.12C743.913 732.92 744.145 731.864 744.609 730.952C745.073 730.024 745.721 729.304 746.553 728.792C747.401 728.28 748.361 728.024 749.433 728.024C750.985 728.024 752.201 728.536 753.081 729.56C753.961 730.568 754.401 731.96 754.401 733.736V734.456ZM749.457 729.536C748.433 729.536 747.609 729.856 746.985 730.496C746.377 731.136 746.017 732.04 745.905 733.208H752.697C752.665 732.024 752.369 731.12 751.809 730.496C751.249 729.856 750.465 729.536 749.457 729.536ZM771.828 728.336H773.772L766.86 744.32H764.868L766.836 739.856L761.892 728.336H763.956L767.868 737.888L771.828 728.336ZM780.488 740.168C779.384 740.168 778.408 739.92 777.56 739.424C776.728 738.928 776.08 738.224 775.616 737.312C775.168 736.384 774.944 735.312 774.944 734.096C774.944 732.88 775.168 731.816 775.616 730.904C776.08 729.976 776.728 729.264 777.56 728.768C778.408 728.272 779.384 728.024 780.488 728.024C781.592 728.024 782.568 728.272 783.416 728.768C784.264 729.264 784.912 729.976 785.36 730.904C785.824 731.816 786.056 732.88 786.056 734.096C786.056 735.312 785.824 736.384 785.36 737.312C784.912 738.224 784.264 738.928 783.416 739.424C782.568 739.92 781.592 740.168 780.488 740.168ZM780.488 738.56C781.64 738.56 782.52 738.184 783.128 737.432C783.752 736.664 784.064 735.552 784.064 734.096C784.064 732.672 783.752 731.576 783.128 730.808C782.504 730.024 781.624 729.632 780.488 729.632C779.352 729.632 778.472 730.024 777.848 730.808C777.224 731.576 776.912 732.672 776.912 734.096C776.912 735.536 777.216 736.64 777.824 737.408C778.448 738.176 779.336 738.56 780.488 738.56ZM798.792 728.312V740H796.896V738.008C796.528 738.712 796.008 739.248 795.336 739.616C794.68 739.984 793.936 740.168 793.104 740.168C791.712 740.168 790.664 739.784 789.96 739.016C789.256 738.232 788.904 737.08 788.904 735.56V728.312H790.848V735.512C790.848 736.552 791.056 737.32 791.472 737.816C791.888 738.296 792.544 738.536 793.44 738.536C794.464 738.536 795.288 738.208 795.912 737.552C796.536 736.88 796.848 736 796.848 734.912V728.312H798.792ZM813.345 728.024C814.833 728.024 815.937 728.408 816.657 729.176C817.393 729.928 817.761 731.08 817.761 732.632V740H815.865V738.008C815.561 738.696 815.097 739.232 814.473 739.616C813.849 739.984 813.129 740.168 812.313 740.168C811.561 740.168 810.865 740.016 810.225 739.712C809.601 739.408 809.105 738.984 808.737 738.44C808.369 737.896 808.185 737.296 808.185 736.64C808.185 735.76 808.409 735.08 808.857 734.6C809.305 734.104 810.041 733.752 811.065 733.544C812.089 733.32 813.513 733.208 815.337 733.208H815.865V732.416C815.865 731.44 815.665 730.736 815.265 730.304C814.865 729.856 814.217 729.632 813.321 729.632C811.977 729.632 810.641 730.048 809.313 730.88L808.665 729.464C809.273 729.032 810.001 728.688 810.849 728.432C811.713 728.16 812.545 728.024 813.345 728.024ZM812.577 738.632C813.537 738.632 814.321 738.312 814.929 737.672C815.553 737.016 815.865 736.176 815.865 735.152V734.456H815.433C814.025 734.456 812.953 734.52 812.217 734.648C811.481 734.76 810.953 734.96 810.633 735.248C810.329 735.52 810.177 735.928 810.177 736.472C810.177 737.096 810.401 737.616 810.849 738.032C811.313 738.432 811.889 738.632 812.577 738.632ZM827.944 729.704L826.672 729.824C825.472 729.936 824.6 730.312 824.056 730.952C823.528 731.592 823.264 732.384 823.264 733.328V740H821.32V728.312H823.216V730.352C823.872 728.992 825.16 728.232 827.08 728.072L827.776 728.024L827.944 729.704ZM839.338 734.456H830.794C830.858 735.816 831.226 736.848 831.898 737.552C832.57 738.24 833.522 738.584 834.754 738.584C836.114 738.584 837.362 738.12 838.498 737.192L839.146 738.608C838.634 739.088 837.978 739.472 837.178 739.76C836.378 740.032 835.562 740.168 834.73 740.168C832.906 740.168 831.466 739.632 830.41 738.56C829.37 737.488 828.85 736.008 828.85 734.12C828.85 732.92 829.082 731.864 829.546 730.952C830.01 730.024 830.658 729.304 831.49 728.792C832.338 728.28 833.298 728.024 834.37 728.024C835.922 728.024 837.138 728.536 838.018 729.56C838.898 730.568 839.338 731.96 839.338 733.736V734.456ZM834.394 729.536C833.37 729.536 832.546 729.856 831.922 730.496C831.314 731.136 830.954 732.04 830.842 733.208H837.634C837.602 732.024 837.306 731.12 836.746 730.496C836.186 729.856 835.402 729.536 834.394 729.536ZM848.39 740V723.08H850.334V740H848.39ZM858.816 740.168C857.712 740.168 856.736 739.92 855.888 739.424C855.056 738.928 854.408 738.224 853.944 737.312C853.496 736.384 853.272 735.312 853.272 734.096C853.272 732.88 853.496 731.816 853.944 730.904C854.408 729.976 855.056 729.264 855.888 728.768C856.736 728.272 857.712 728.024 858.816 728.024C859.92 728.024 860.896 728.272 861.744 728.768C862.592 729.264 863.24 729.976 863.688 730.904C864.152 731.816 864.384 732.88 864.384 734.096C864.384 735.312 864.152 736.384 863.688 737.312C863.24 738.224 862.592 738.928 861.744 739.424C860.896 739.92 859.92 740.168 858.816 740.168ZM858.816 738.56C859.968 738.56 860.848 738.184 861.456 737.432C862.08 736.664 862.392 735.552 862.392 734.096C862.392 732.672 862.08 731.576 861.456 730.808C860.832 730.024 859.952 729.632 858.816 729.632C857.68 729.632 856.8 730.024 856.176 730.808C855.552 731.576 855.24 732.672 855.24 734.096C855.24 735.536 855.544 736.64 856.152 737.408C856.776 738.176 857.664 738.56 858.816 738.56ZM872.128 740.168C871.024 740.168 870.048 739.92 869.2 739.424C868.368 738.928 867.72 738.224 867.256 737.312C866.808 736.384 866.584 735.312 866.584 734.096C866.584 732.88 866.808 731.816 867.256 730.904C867.72 729.976 868.368 729.264 869.2 728.768C870.048 728.272 871.024 728.024 872.128 728.024C873.232 728.024 874.208 728.272 875.056 728.768C875.904 729.264 876.552 729.976 877 730.904C877.464 731.816 877.696 732.88 877.696 734.096C877.696 735.312 877.464 736.384 877 737.312C876.552 738.224 875.904 738.928 875.056 739.424C874.208 739.92 873.232 740.168 872.128 740.168ZM872.128 738.56C873.28 738.56 874.16 738.184 874.768 737.432C875.392 736.664 875.704 735.552 875.704 734.096C875.704 732.672 875.392 731.576 874.768 730.808C874.144 730.024 873.264 729.632 872.128 729.632C870.992 729.632 870.112 730.024 869.488 730.808C868.864 731.576 868.552 732.672 868.552 734.096C868.552 735.536 868.856 736.64 869.464 737.408C870.088 738.176 870.976 738.56 872.128 738.56ZM891.009 740H888.489L882.537 734.408V740H880.593V723.08H882.537V733.616L887.985 728.336H890.457L884.649 733.928L891.009 740ZM892.593 740V728.312H894.537V740H892.593ZM892.401 723.248H894.753V725.432H892.401V723.248ZM904.051 728.024C906.851 728.024 908.251 729.568 908.251 732.656V740H906.307V732.776C906.307 731.688 906.091 730.896 905.659 730.4C905.243 729.904 904.571 729.656 903.643 729.656C902.571 729.656 901.715 729.984 901.075 730.64C900.435 731.296 900.115 732.184 900.115 733.304V740H898.171V728.312H900.091V730.232C900.475 729.512 901.011 728.968 901.699 728.6C902.387 728.216 903.171 728.024 904.051 728.024ZM922.276 728.312V739.208C922.276 740.952 921.828 742.264 920.932 743.144C920.036 744.04 918.708 744.488 916.948 744.488C914.9 744.488 913.18 743.96 911.788 742.904L912.436 741.464C913.22 741.976 913.956 742.344 914.644 742.568C915.332 742.792 916.1 742.904 916.948 742.904C918.068 742.904 918.916 742.6 919.492 741.992C920.068 741.4 920.356 740.528 920.356 739.376V737.312C920.02 738.064 919.5 738.64 918.796 739.04C918.108 739.44 917.292 739.64 916.348 739.64C915.324 739.64 914.412 739.4 913.612 738.92C912.828 738.44 912.212 737.76 911.764 736.88C911.332 736 911.116 734.984 911.116 733.832C911.116 732.68 911.332 731.664 911.764 730.784C912.212 729.904 912.828 729.224 913.612 728.744C914.412 728.264 915.324 728.024 916.348 728.024C917.276 728.024 918.084 728.224 918.772 728.624C919.46 729.024 919.98 729.592 920.332 730.328V728.312H922.276ZM916.732 738.032C917.852 738.032 918.732 737.664 919.372 736.928C920.012 736.176 920.332 735.144 920.332 733.832C920.332 732.536 920.012 731.52 919.372 730.784C918.748 730.032 917.868 729.656 916.732 729.656C915.596 729.656 914.7 730.032 914.044 730.784C913.404 731.52 913.084 732.536 913.084 733.832C913.084 735.144 913.404 736.176 914.044 736.928C914.7 737.664 915.596 738.032 916.732 738.032ZM934.654 728.312H937.966V729.848H934.654V740H932.71V729.848H930.43V728.312H932.71V727.928C932.71 726.376 933.094 725.2 933.862 724.4C934.646 723.6 935.846 723.152 937.462 723.056L938.422 723.008L938.566 724.52L937.462 724.592C936.486 724.656 935.774 724.936 935.326 725.432C934.878 725.912 934.654 726.656 934.654 727.664V728.312ZM944.668 740.168C943.564 740.168 942.588 739.92 941.74 739.424C940.908 738.928 940.26 738.224 939.796 737.312C939.348 736.384 939.124 735.312 939.124 734.096C939.124 732.88 939.348 731.816 939.796 730.904C940.26 729.976 940.908 729.264 941.74 728.768C942.588 728.272 943.564 728.024 944.668 728.024C945.772 728.024 946.748 728.272 947.596 728.768C948.444 729.264 949.092 729.976 949.54 730.904C950.004 731.816 950.236 732.88 950.236 734.096C950.236 735.312 950.004 736.384 949.54 737.312C949.092 738.224 948.444 738.928 947.596 739.424C946.748 739.92 945.772 740.168 944.668 740.168ZM944.668 738.56C945.82 738.56 946.7 738.184 947.308 737.432C947.932 736.664 948.244 735.552 948.244 734.096C948.244 732.672 947.932 731.576 947.308 730.808C946.684 730.024 945.804 729.632 944.668 729.632C943.532 729.632 942.652 730.024 942.028 730.808C941.404 731.576 941.092 732.672 941.092 734.096C941.092 735.536 941.396 736.64 942.004 737.408C942.628 738.176 943.516 738.56 944.668 738.56ZM959.756 729.704L958.484 729.824C957.284 729.936 956.412 730.312 955.868 730.952C955.34 731.592 955.076 732.384 955.076 733.328V740H953.132V728.312H955.028V730.352C955.684 728.992 956.972 728.232 958.892 728.072L959.588 728.024L959.756 729.704Z" fill="#F8FBFB"/>
<path d="M468.78 288.191C470.203 280.253 470.025 272.11 468.256 264.241C466.487 256.372 463.163 248.936 458.479 242.37C458.912 242.194 459.307 241.934 459.639 241.605C462.263 238.98 461.531 235.684 456.28 230.437C451.028 225.19 443.255 219.978 440.633 222.599C439.981 223.29 439.595 224.19 439.542 225.138C430.347 219.798 419.901 216.99 409.267 217C400.27 217.078 391.398 219.123 383.275 222.991C375.151 226.86 367.971 232.458 362.24 239.394C360.224 234.537 352.185 236.559 348.803 241.634C345.383 246.764 351.004 253.937 353.282 257.31C350.988 263.052 349.482 269.079 348.803 275.225C346.541 280.015 344.324 285.269 344.324 288.662C344.324 294.513 346.926 301.684 353.282 297.619C361.686 320.909 383.08 337.929 409.267 337.929C418.28 337.94 427.18 335.929 435.312 332.044C435.4 332.407 435.552 332.752 435.76 333.063C437.811 335.895 443.562 333.322 449.573 328.971C455.583 324.62 459.578 320.137 457.527 317.304C457.072 316.735 456.45 316.322 455.749 316.124C457.552 313.778 459.229 311.339 460.774 308.816C462.243 309.525 463.871 309.838 465.497 309.725C467.124 309.612 468.693 309.077 470.049 308.173C471.406 307.269 472.503 306.026 473.233 304.568C473.963 303.11 474.3 301.487 474.211 299.859C474.347 297.616 473.922 295.374 472.973 293.337C472.025 291.3 470.584 289.531 468.78 288.191Z" fill="#D2DFE6"/>
<path opacity="0.5" fill-rule="evenodd" clip-rule="evenodd" d="M447.451 241.512C451.691 245.753 453.067 251.254 450.522 253.798C447.978 256.343 442.477 254.967 438.236 250.727C433.995 246.486 432.62 240.985 435.164 238.44C437.709 235.896 443.21 237.271 447.451 241.512ZM389.113 277.464C399.007 277.464 407.028 269.443 407.028 259.549C407.028 249.655 399.007 241.634 389.113 241.634C379.218 241.634 371.197 249.655 371.197 259.549C371.197 269.443 379.218 277.464 389.113 277.464ZM376.96 305.628C378.675 303.913 377.98 300.439 375.408 297.867C372.837 295.295 369.362 294.601 367.647 296.315C365.932 298.03 366.627 301.505 369.199 304.076C371.77 306.648 375.245 307.343 376.96 305.628ZM411.507 311.056C411.507 316.003 407.496 320.014 402.549 320.014C397.602 320.014 393.591 316.003 393.591 311.056C393.591 306.109 397.602 302.098 402.549 302.098C407.496 302.098 411.507 306.109 411.507 311.056ZM444.821 315.28C447.393 312.709 448.088 309.234 446.373 307.519C444.658 305.804 441.184 306.499 438.612 309.071C436.04 311.642 435.346 315.117 437.06 316.832C438.775 318.547 442.25 317.852 444.821 315.28Z" fill="#8CA0B3"/>
<path opacity="0.3" fill-rule="evenodd" clip-rule="evenodd" d="M385.707 234.185L383.561 230.253C389.952 226.82 396.963 224.699 404.185 224.012C411.407 223.326 418.692 224.089 425.615 226.256L424.254 230.51C417.907 228.527 411.229 227.83 404.61 228.461C397.99 229.092 391.564 231.038 385.707 234.185ZM354.131 245.586C353.714 248.18 355.152 251.149 358.417 254.414L361.583 251.248C358.594 248.258 358.502 246.746 358.545 246.352C358.552 246.249 358.583 246.148 358.635 246.058C358.687 245.968 358.759 245.891 358.845 245.833L357.761 243.873L356.76 241.869C356.066 242.246 355.468 242.777 355.012 243.421C354.556 244.066 354.255 244.807 354.131 245.586ZM463.67 300.515L466.836 303.681C467.464 303.089 467.942 302.356 468.232 301.543C468.523 300.73 468.617 299.86 468.507 299.003C468.043 295.243 463.84 291.795 461.325 290.046C462.404 286.703 462.973 283.216 463.014 279.704H458.535C458.513 283.201 457.833 286.663 456.53 289.909C456.281 290.413 456.23 290.991 456.388 291.531C456.546 292.07 456.9 292.53 457.381 292.82C459.93 294.35 463.813 297.543 464.062 299.559C464.086 299.738 464.063 299.922 463.994 300.09C463.925 300.257 463.813 300.404 463.67 300.515ZM358.056 261.117C354.93 270.965 354.692 281.503 357.369 291.483L361.693 290.328C359.239 281.175 359.457 271.511 362.323 262.478L358.056 261.117ZM409.267 331.211C404.534 331.213 399.82 330.593 395.249 329.365L396.413 325.039C408.657 328.278 421.674 326.743 432.828 320.744L434.974 324.676C427.084 328.964 418.247 331.211 409.267 331.211ZM379.13 232.909L374.653 235.148L376.655 239.152L381.132 236.914L379.13 232.909ZM383.573 324.252L385.576 320.248L390.052 322.486L388.05 326.49L383.573 324.252ZM463.014 270.746H458.535V275.225H463.014V270.746ZM454.056 297.619H458.535V302.098H454.056V297.619ZM403.355 277.982L406.222 281.426C410.423 277.964 413.561 273.385 415.273 268.217C416.985 263.049 417.202 257.503 415.898 252.217L411.592 253.44C412.658 257.891 412.451 262.553 410.995 266.893C409.539 271.232 406.891 275.075 403.355 277.982ZM387.21 305.857L383.324 303.617C385.15 300.651 387.583 298.105 390.464 296.147C394.819 293.235 401.923 290.87 411.013 296.066L408.782 299.963C395.29 292.252 387.535 305.297 387.21 305.857ZM430.067 256.653C433.597 260.169 440.51 264.834 447.759 264.834C451.378 264.846 454.888 263.596 457.684 261.298L454.884 257.8C445.394 265.387 433.724 253.975 433.231 253.485L430.067 256.653ZM431.438 309.817L427.429 307.815C429.34 303.623 432.726 300.279 436.943 298.421C441.159 296.562 445.912 296.319 450.296 297.738L448.89 301.993C445.527 300.939 441.895 301.153 438.679 302.595C435.464 304.036 432.888 306.606 431.438 309.817ZM434.54 271.404L427.822 278.122L430.989 281.288L437.707 274.571L434.54 271.404ZM430.062 287.08L436.78 280.362L439.946 283.528L433.228 290.246L430.062 287.08ZM368.291 278.117L365.125 281.283L369.602 285.761L372.769 282.594L368.291 278.117ZM409.913 237.815L414.391 233.337L417.557 236.504L413.08 240.981L409.913 237.815ZM421.107 235.577L416.629 240.054L419.796 243.221L424.273 238.743L421.107 235.577Z" fill="#8CA0B3"/>
<path opacity="0.5" d="M498.453 309.966C498.066 309.985 497.707 309.769 497.542 309.419C495.444 304.968 493.991 303.648 489.36 301.984C488.996 301.853 488.746 301.516 488.728 301.129C488.71 300.743 488.926 300.383 489.275 300.218C493.727 298.12 495.047 296.667 496.711 292.036C496.841 291.672 497.179 291.422 497.565 291.404C497.952 291.385 498.311 291.602 498.476 291.952C500.574 296.402 502.027 297.723 506.658 299.387C507.023 299.518 507.272 299.855 507.291 300.242C507.309 300.628 507.093 300.988 506.743 301.153C502.292 303.25 500.971 304.703 499.307 309.334C499.176 309.699 498.839 309.948 498.453 309.966Z" fill="#DAF2F4"/>
<path opacity="0.5" d="M816.169 333.007C815.782 333.025 815.423 332.809 815.258 332.459C813.16 328.008 811.707 326.688 807.076 325.024C806.711 324.893 806.462 324.556 806.444 324.169C806.425 323.783 806.641 323.423 806.991 323.258C811.443 321.16 812.763 319.707 814.426 315.076C814.557 314.712 814.895 314.462 815.281 314.444C815.667 314.425 816.027 314.642 816.192 314.992C818.29 319.442 819.743 320.763 824.374 322.427C824.738 322.558 824.988 322.895 825.006 323.282C825.025 323.668 824.809 324.028 824.459 324.193C820.008 326.29 818.687 327.743 817.023 332.374C816.892 332.739 816.555 332.988 816.169 333.007Z" fill="#DAF2F4"/>
<path opacity="0.5" d="M858.852 366.384C858.741 366.389 858.638 366.327 858.591 366.227C857.99 364.952 857.574 364.574 856.248 364.097C856.143 364.06 856.072 363.963 856.067 363.853C856.061 363.742 856.123 363.639 856.223 363.592C857.498 362.991 857.876 362.575 858.353 361.248C858.39 361.144 858.487 361.073 858.598 361.067C858.708 361.062 858.811 361.124 858.858 361.224C859.459 362.499 859.876 362.877 861.202 363.354C861.306 363.391 861.378 363.488 861.383 363.598C861.388 363.709 861.326 363.812 861.226 363.859C859.951 364.46 859.573 364.876 859.096 366.203C859.059 366.307 858.962 366.378 858.852 366.384Z" fill="#DAF2F4"/>
<path opacity="0.5" d="M832.912 210.443C832.802 210.448 832.699 210.387 832.651 210.286C832.051 209.011 831.634 208.633 830.308 208.157C830.204 208.119 830.132 208.023 830.127 207.912C830.122 207.802 830.184 207.699 830.284 207.651C831.559 207.05 831.937 206.634 832.413 205.308C832.451 205.204 832.547 205.132 832.658 205.127C832.769 205.122 832.872 205.183 832.919 205.284C833.52 206.558 833.936 206.937 835.262 207.413C835.367 207.451 835.438 207.547 835.443 207.658C835.449 207.769 835.387 207.872 835.287 207.919C834.012 208.52 833.634 208.936 833.157 210.262C833.12 210.366 833.023 210.438 832.912 210.443Z" fill="#DAF2F4"/>
<path opacity="0.5" d="M795.912 335.443C795.802 335.448 795.699 335.387 795.651 335.286C795.051 334.011 794.634 333.633 793.308 333.157C793.204 333.119 793.132 333.023 793.127 332.912C793.122 332.802 793.184 332.699 793.284 332.651C794.559 332.05 794.937 331.634 795.413 330.308C795.451 330.204 795.547 330.132 795.658 330.127C795.769 330.122 795.872 330.183 795.919 330.284C796.52 331.558 796.936 331.937 798.262 332.413C798.367 332.451 798.438 332.547 798.443 332.658C798.449 332.769 798.387 332.872 798.287 332.919C797.012 333.52 796.634 333.936 796.157 335.262C796.12 335.366 796.023 335.438 795.912 335.443Z" fill="#DAF2F4"/>
<path opacity="0.5" d="M542.07 382.297C541.88 382.306 541.704 382.201 541.624 382.029C540.596 379.85 539.885 379.203 537.617 378.389C537.439 378.325 537.317 378.16 537.308 377.97C537.299 377.781 537.405 377.605 537.576 377.524C539.756 376.497 540.402 375.785 541.217 373.518C541.281 373.34 541.446 373.218 541.635 373.208C541.824 373.199 542 373.305 542.081 373.477C543.109 375.656 543.82 376.302 546.087 377.117C546.266 377.181 546.388 377.347 546.397 377.536C546.406 377.725 546.3 377.901 546.129 377.982C543.949 379.009 543.303 379.72 542.488 381.988C542.424 382.166 542.259 382.288 542.07 382.297Z" fill="#DAF2F4"/>
<path opacity="0.5" d="M652.605 413.331C652.311 413.345 652.038 413.181 651.912 412.914C650.316 409.527 649.21 408.523 645.686 407.256C645.409 407.157 645.219 406.9 645.205 406.606C645.191 406.312 645.355 406.039 645.621 405.913C649.009 404.316 650.014 403.21 651.28 399.686C651.379 399.409 651.636 399.219 651.93 399.205C652.224 399.191 652.498 399.356 652.623 399.622C654.22 403.009 655.326 404.014 658.85 405.281C659.127 405.38 659.317 405.637 659.331 405.931C659.345 406.225 659.18 406.499 658.914 406.624C655.527 408.22 654.522 409.326 653.256 412.85C653.156 413.127 652.899 413.317 652.605 413.331Z" fill="#DAF2F4"/>
<path opacity="0.5" d="M1015.23 523.908C1015.07 523.915 1014.92 523.825 1014.85 523.68C1013.98 521.828 1013.37 521.279 1011.45 520.586C1011.3 520.532 1011.19 520.392 1011.18 520.231C1011.18 520.07 1011.27 519.92 1011.41 519.852C1013.26 518.979 1013.81 518.374 1014.51 516.448C1014.56 516.296 1014.7 516.192 1014.86 516.185C1015.02 516.177 1015.17 516.267 1015.24 516.412C1016.11 518.264 1016.72 518.814 1018.64 519.506C1018.8 519.56 1018.9 519.701 1018.91 519.862C1018.92 520.022 1018.83 520.172 1018.68 520.24C1016.83 521.113 1016.28 521.718 1015.59 523.645C1015.53 523.796 1015.39 523.9 1015.23 523.908Z" fill="#DAF2F4"/>
<path opacity="0.5" d="M886.231 861.908C886.07 861.915 885.92 861.825 885.852 861.68C884.979 859.828 884.374 859.279 882.448 858.586C882.296 858.532 882.192 858.392 882.185 858.231C882.177 858.07 882.267 857.92 882.412 857.852C884.264 856.979 884.814 856.374 885.506 854.448C885.56 854.296 885.701 854.192 885.861 854.185C886.022 854.177 886.172 854.267 886.24 854.412C887.113 856.264 887.718 856.814 889.645 857.506C889.796 857.56 889.9 857.701 889.908 857.862C889.915 858.022 889.825 858.172 889.68 858.24C887.828 859.113 887.279 859.718 886.586 861.645C886.532 861.796 886.391 861.9 886.231 861.908Z" fill="#DAF2F4"/>
<path opacity="0.5" d="M1068.23 839.908C1068.07 839.915 1067.92 839.825 1067.85 839.68C1066.98 837.828 1066.37 837.279 1064.45 836.586C1064.3 836.532 1064.19 836.392 1064.18 836.231C1064.18 836.07 1064.27 835.92 1064.41 835.852C1066.26 834.979 1066.81 834.374 1067.51 832.448C1067.56 832.296 1067.7 832.192 1067.86 832.185C1068.02 832.177 1068.17 832.267 1068.24 832.412C1069.11 834.264 1069.72 834.814 1071.64 835.506C1071.8 835.56 1071.9 835.701 1071.91 835.862C1071.92 836.022 1071.83 836.172 1071.68 836.24C1069.83 837.113 1069.28 837.718 1068.59 839.645C1068.53 839.796 1068.39 839.9 1068.23 839.908Z" fill="#DAF2F4"/>
<path opacity="0.5" d="M900.546 880.034C900.174 880.052 899.829 879.844 899.671 879.508C897.656 875.233 896.26 873.965 891.812 872.367C891.463 872.241 891.223 871.917 891.206 871.546C891.188 871.175 891.395 870.83 891.731 870.671C896.007 868.656 897.274 867.26 898.872 862.813C898.998 862.463 899.322 862.223 899.693 862.206C900.064 862.188 900.41 862.395 900.568 862.732C902.583 867.006 903.979 868.275 908.427 869.873C908.777 869.999 909.016 870.323 909.034 870.694C909.052 871.065 908.844 871.411 908.508 871.569C904.233 873.583 902.965 874.979 901.366 879.427C901.241 879.777 900.917 880.016 900.546 880.034Z" fill="#DAF2F4"/>
<path d="M1176.06 419.063C1175.83 419.074 1175.61 418.945 1175.51 418.737C1174.27 416.085 1173.4 415.299 1170.64 414.308C1170.42 414.23 1170.28 414.029 1170.26 413.799C1170.25 413.569 1170.38 413.354 1170.59 413.256C1173.24 412.006 1174.03 411.14 1175.02 408.382C1175.1 408.165 1175.3 408.016 1175.53 408.005C1175.76 407.994 1175.97 408.123 1176.07 408.331C1177.32 410.983 1178.19 411.769 1180.95 412.761C1181.16 412.839 1181.31 413.04 1181.32 413.27C1181.33 413.5 1181.2 413.715 1181 413.813C1178.34 415.062 1177.56 415.928 1176.57 418.687C1176.49 418.904 1176.29 419.052 1176.06 419.063Z" fill="#212A3C"/>
<path d="M1185.05 405.326C1184.9 405.333 1184.76 405.249 1184.7 405.114C1183.89 403.399 1183.33 402.89 1181.55 402.249C1181.41 402.198 1181.31 402.068 1181.3 401.919C1181.3 401.77 1181.38 401.632 1181.51 401.568C1183.23 400.759 1183.74 400.199 1184.38 398.414C1184.43 398.274 1184.56 398.178 1184.71 398.171C1184.86 398.164 1185 398.247 1185.06 398.382C1185.87 400.097 1186.43 400.606 1188.22 401.248C1188.36 401.298 1188.45 401.428 1188.46 401.577C1188.47 401.726 1188.38 401.865 1188.25 401.928C1186.53 402.737 1186.02 403.297 1185.38 405.082C1185.33 405.222 1185.2 405.318 1185.05 405.326Z" fill="#212A3C"/>
<path opacity="0.5" d="M944.044 201.166C943.776 201.179 943.527 201.029 943.413 200.787C941.959 197.703 940.953 196.789 937.745 195.636C937.493 195.546 937.32 195.312 937.307 195.044C937.295 194.777 937.444 194.528 937.687 194.414C940.77 192.96 941.684 191.953 942.837 188.746C942.928 188.493 943.161 188.321 943.429 188.308C943.696 188.295 943.945 188.445 944.06 188.687C945.513 191.77 946.52 192.685 949.728 193.838C949.98 193.928 950.153 194.162 950.165 194.43C950.178 194.697 950.029 194.947 949.786 195.061C946.703 196.514 945.788 197.52 944.635 200.728C944.545 200.98 944.311 201.153 944.044 201.166Z" fill="#DAF2F4"/>
<path opacity="0.5" d="M954.633 184.79C954.495 184.796 954.366 184.719 954.307 184.594C953.558 183.004 953.039 182.532 951.384 181.938C951.254 181.891 951.165 181.77 951.159 181.632C951.152 181.494 951.229 181.366 951.354 181.307C952.944 180.557 953.416 180.038 954.01 178.384C954.057 178.254 954.178 178.164 954.316 178.158C954.454 178.151 954.582 178.228 954.641 178.354C955.391 179.944 955.91 180.415 957.564 181.01C957.695 181.057 957.784 181.177 957.79 181.315C957.797 181.453 957.72 181.582 957.595 181.641C956.004 182.39 955.533 182.909 954.938 184.564C954.891 184.694 954.771 184.783 954.633 184.79Z" fill="#DAF2F4"/>
<g filter="url(#filter0_f)">
<path d="M536.766 560.318C536.766 559.878 536.766 559.451 536.766 558.941V558.157C536.766 557.923 536.766 557.702 536.683 557.496L536.586 556.89V556.601C536.544 556.409 536.489 556.22 536.421 556.036C536.395 555.938 536.363 555.841 536.324 555.747C536.09 555.32 536.09 555.293 535.883 555.182C535.676 555.072 535.883 555.182 535.8 555.182C535.718 555.182 535.662 555.182 535.704 555.293C535.724 555.355 535.724 555.423 535.704 555.485V555.623L535.787 555.774C535.831 555.891 535.868 556.011 535.897 556.132C535.864 556.212 535.85 556.298 535.855 556.383C535.859 556.469 535.883 556.553 535.924 556.628C536.141 556.949 536.326 557.29 536.476 557.647C536.84 558.009 537.172 558.4 537.469 558.818L537.69 559.148C537.803 559.26 537.923 559.366 538.048 559.465L538.779 560.112C541.246 562.327 543.996 564.207 546.957 565.702C547.841 566.2 548.763 566.628 549.715 566.983L552.61 568.277C553.107 568.47 553.534 568.745 554.086 568.911L555.727 569.448L558.995 570.549C568.731 573.552 578.741 575.581 588.878 576.608C591.636 576.883 594.229 577.283 596.973 577.489L605.247 577.971L609.384 578.219L611.48 578.357H613.604L622.14 578.439C624.995 578.439 627.835 578.563 630.717 578.439L639.405 578.136L648.107 577.833C651.003 577.709 653.94 577.42 656.863 577.214L665.661 576.553C668.585 576.319 671.522 576.181 674.473 575.795L692.166 573.826L696.593 573.344L701.033 572.697L709.914 571.417L718.808 570.136C721.773 569.723 724.738 569.296 727.689 568.759L745.533 565.689L754.442 564.119L763.336 562.329C810.802 552.993 858.157 541.027 905.264 527.795C952.371 514.562 999.147 499.526 1045.8 484.063H1045.87C1047.72 483.474 1049.73 483.612 1051.48 484.45C1053.24 485.288 1054.6 486.762 1055.31 488.572C1056.01 490.382 1056 492.392 1055.27 494.192C1054.54 495.992 1053.15 497.446 1051.38 498.259C1006.51 518.624 961.293 538.549 915.317 557.041C869.341 575.534 822.661 592.677 774.782 607.576L765.819 610.329L756.759 612.932L738.638 618.123C735.618 619.018 732.557 619.789 729.496 620.56L720.298 622.901L711.086 625.242L706.48 626.412L701.819 627.445L683.133 631.576C680.031 632.319 676.845 632.815 673.687 633.421L664.172 635.115C660.987 635.679 657.842 636.326 654.629 636.808L644.976 638.185L635.323 639.562C632.096 640.017 628.759 640.251 625.491 640.609L615.603 641.573L613.121 641.807L610.611 641.931L605.564 642.178L595.442 642.66C592.05 642.757 588.547 642.66 585.114 642.66C570.662 642.684 556.243 641.301 542.061 638.53L536.421 637.304L533.663 636.671C532.725 636.478 531.732 636.12 530.767 635.844L524.892 634.137C522.934 633.49 521.045 633.022 519.032 632.14C510.576 629.028 502.525 624.914 495.051 619.886L492.058 617.834C491.548 617.476 491.052 617.173 490.569 616.774L489.038 615.548C487.066 613.923 485.108 612.257 483.191 610.55C481.274 608.842 479.385 606.694 477.592 604.711C476.645 603.693 475.756 602.622 474.931 601.503C474.067 600.383 473.212 599.254 472.366 598.116L471.111 596.395L469.939 594.522C469.167 593.269 468.353 591.988 467.664 590.708C466.906 589.399 466.215 588.053 465.595 586.673C464.933 585.296 464.216 583.919 463.678 582.542C462.443 579.482 461.406 576.345 460.576 573.152C460.369 572.312 460.148 571.513 459.955 570.618L459.431 567.713L459.197 566.267C459.197 565.771 459.059 565.096 458.99 564.518L458.824 562.742V562.287V561.365C458.824 560.745 458.824 560.112 458.824 559.492C459.092 549.262 463.378 539.547 470.757 532.445C478.136 525.342 488.016 521.422 498.264 521.531C508.513 521.639 518.307 525.768 525.534 533.024C532.761 540.281 536.839 550.085 536.89 560.318H536.766Z" fill="url(#paint0_linear)"/>
</g>
<g filter="url(#filter1_d)">
<path d="M1089.23 447.887C1089.06 446.489 1088.12 445.308 1086.79 444.832L1058.3 434.649C1055.41 433.618 1052.27 433.969 1049.69 435.613L1030.31 447.931C1028.35 449.178 1027.18 451.309 1027.17 453.633C1027.16 455.956 1028.32 458.096 1030.27 459.358L1051.06 472.8C1051.22 472.905 1051.39 472.996 1051.56 473.073C1052.7 473.584 1054.05 473.487 1055.11 472.784L1087.58 451.431C1088.76 450.657 1089.4 449.285 1089.23 447.887Z" fill="#167491"/>
<path d="M1108.06 497.156C1107.25 496.003 1105.86 495.406 1104.47 495.614L1066.04 501.362C1064.58 501.58 1063.39 502.636 1063 504.056L1056.48 527.938C1055.87 530.18 1056.43 532.547 1057.99 534.273C1058.64 534.99 1059.41 535.548 1060.26 535.928C1061.46 536.461 1062.8 536.644 1064.14 536.422L1086.79 532.677C1089.81 532.177 1092.38 530.346 1093.84 527.653L1108.28 501.058C1108.95 499.821 1108.87 498.31 1108.06 497.156Z" fill="#167491"/>
<path d="M1055.14 506.602C1055.89 508.555 1057.53 510.043 1059.55 510.569C1089.21 518.288 1121.25 505.2 1136.75 492.842C1153.96 479.121 1162.73 460.414 1166.2 451.354C1167.39 448.249 1166.05 444.753 1163.1 443.233C1154.47 438.798 1135.45 430.711 1113.48 431.965C1093.69 433.095 1061.09 444.72 1044.14 470.254C1042.98 471.995 1042.76 474.194 1043.5 476.146L1055.14 506.602Z" fill="#F8FBFB"/>
<path d="M1088.81 492.132C1084.02 489.992 1080.05 486.031 1078.04 480.757C1076.08 475.648 1076.24 470.084 1078.47 465.09C1080.7 460.096 1084.74 456.271 1089.85 454.318C1100.4 450.286 1112.26 455.587 1116.29 466.134C1118.24 471.243 1118.09 476.808 1115.86 481.801C1113.63 486.795 1109.58 490.621 1104.47 492.573C1099.2 494.589 1093.6 494.271 1088.81 492.132ZM1091.31 458.143L1091.32 458.145L1091.31 458.143Z" fill="#505F79"/>
<path d="M1102.17 462.234C1099.3 460.95 1095.94 460.76 1092.78 461.969C1089.71 463.141 1087.29 465.436 1085.95 468.432C1084.61 471.429 1084.52 474.767 1085.69 477.833C1088.11 484.161 1095.22 487.342 1101.55 484.923C1104.62 483.751 1107.04 481.455 1108.38 478.459C1109.72 475.463 1109.81 472.125 1108.64 469.059C1107.43 465.895 1105.05 463.518 1102.17 462.234Z" fill="#55CFFF"/>
<path fill-rule="evenodd" clip-rule="evenodd" d="M1128.39 432.348L1147.57 482.528C1157.88 470.831 1163.66 458.206 1166.32 451.257C1167.51 448.152 1166.18 444.656 1163.22 443.136C1156.6 439.734 1143.87 434.184 1128.39 432.348Z" fill="#167491"/>
<path fill-rule="evenodd" clip-rule="evenodd" d="M1043.37 476.217C1041.58 477.783 1039.88 479.409 1038.27 481.095C1037.02 482.41 1036.58 483.939 1037.06 485.195L1044.55 504.79C1045.03 506.046 1046.38 506.89 1048.19 507.034C1050.51 507.219 1052.86 507.293 1055.24 507.267L1043.37 476.217Z" fill="#607B99"/>
</g>
<rect x="656" y="782" width="121" height="40" rx="8" fill="#00C6D7"/>
<path d="M679.548 801.904C680.118 802.063 680.556 802.352 680.864 802.772C681.182 803.192 681.34 803.705 681.34 804.312C681.34 805.152 681.037 805.81 680.43 806.286C679.833 806.762 679.007 807 677.952 807H673.472V797.13H677.812C678.839 797.13 679.642 797.359 680.22 797.816C680.808 798.264 681.102 798.894 681.102 799.706C681.102 800.229 680.962 800.681 680.682 801.064C680.412 801.447 680.034 801.727 679.548 801.904ZM675.236 801.288H677.518C678.76 801.288 679.38 800.826 679.38 799.902C679.38 799.435 679.226 799.09 678.918 798.866C678.61 798.642 678.144 798.53 677.518 798.53H675.236V801.288ZM677.756 805.6C678.41 805.6 678.886 805.483 679.184 805.25C679.483 805.017 679.632 804.653 679.632 804.158C679.632 803.663 679.478 803.295 679.17 803.052C678.872 802.809 678.4 802.688 677.756 802.688H675.236V805.6H677.756ZM685.815 799.986C686.776 799.986 687.49 800.219 687.957 800.686C688.424 801.153 688.657 801.871 688.657 802.842V807H686.991V805.95C686.832 806.314 686.58 806.599 686.235 806.804C685.899 807.009 685.507 807.112 685.059 807.112C684.602 807.112 684.186 807.019 683.813 806.832C683.44 806.645 683.146 806.389 682.931 806.062C682.716 805.735 682.609 805.371 682.609 804.97C682.609 804.466 682.735 804.069 682.987 803.78C683.248 803.491 683.668 803.281 684.247 803.15C684.826 803.019 685.624 802.954 686.641 802.954H686.991V802.632C686.991 802.165 686.888 801.829 686.683 801.624C686.487 801.419 686.156 801.316 685.689 801.316C685.325 801.316 684.942 801.381 684.541 801.512C684.149 801.633 683.762 801.806 683.379 802.03L682.889 800.826C683.272 800.583 683.734 800.383 684.275 800.224C684.816 800.065 685.33 799.986 685.815 799.986ZM685.409 805.852C685.876 805.852 686.254 805.698 686.543 805.39C686.842 805.073 686.991 804.667 686.991 804.172V803.878H686.739C686.114 803.878 685.628 803.906 685.283 803.962C684.938 804.018 684.69 804.116 684.541 804.256C684.392 804.396 684.317 804.587 684.317 804.83C684.317 805.129 684.42 805.376 684.625 805.572C684.83 805.759 685.092 805.852 685.409 805.852ZM693.557 807.112C692.839 807.112 692.213 806.967 691.681 806.678C691.159 806.389 690.757 805.978 690.477 805.446C690.197 804.914 690.057 804.293 690.057 803.584C690.057 802.875 690.202 802.249 690.491 801.708C690.79 801.157 691.21 800.733 691.751 800.434C692.293 800.135 692.918 799.986 693.627 799.986C694.113 799.986 694.584 800.065 695.041 800.224C695.508 800.373 695.881 800.579 696.161 800.84L695.657 802.072C695.368 801.839 695.06 801.661 694.733 801.54C694.416 801.419 694.099 801.358 693.781 801.358C693.175 801.358 692.703 801.549 692.367 801.932C692.031 802.305 691.863 802.847 691.863 803.556C691.863 804.256 692.031 804.797 692.367 805.18C692.703 805.553 693.175 805.74 693.781 805.74C694.099 805.74 694.416 805.679 694.733 805.558C695.06 805.437 695.368 805.259 695.657 805.026L696.161 806.244C695.863 806.515 695.48 806.729 695.013 806.888C694.547 807.037 694.061 807.112 693.557 807.112ZM704.131 807H701.961L699.021 803.878V807H697.271V797.13H699.021V803.15L701.779 800.168H703.907L700.827 803.444L704.131 807ZM712.078 805.796C712.283 805.796 712.498 805.782 712.722 805.754L712.638 807.056C712.358 807.084 712.101 807.098 711.868 807.098C710.907 807.098 710.197 806.879 709.74 806.44C709.283 805.992 709.054 805.329 709.054 804.452V801.47H707.738V800.154H709.054V798.11H710.804V800.154H712.61V801.47H710.804V804.424C710.804 805.339 711.229 805.796 712.078 805.796ZM716.868 807.112C716.168 807.112 715.552 806.967 715.02 806.678C714.497 806.389 714.091 805.973 713.802 805.432C713.513 804.891 713.368 804.261 713.368 803.542C713.368 802.823 713.513 802.198 713.802 801.666C714.091 801.125 714.497 800.709 715.02 800.42C715.552 800.131 716.168 799.986 716.868 799.986C717.568 799.986 718.179 800.131 718.702 800.42C719.234 800.709 719.64 801.125 719.92 801.666C720.209 802.198 720.354 802.823 720.354 803.542C720.354 804.261 720.209 804.891 719.92 805.432C719.64 805.973 719.234 806.389 718.702 806.678C718.179 806.967 717.568 807.112 716.868 807.112ZM716.854 805.754C717.423 805.754 717.857 805.567 718.156 805.194C718.455 804.821 718.604 804.27 718.604 803.542C718.604 802.823 718.455 802.277 718.156 801.904C717.857 801.521 717.428 801.33 716.868 801.33C716.308 801.33 715.874 801.521 715.566 801.904C715.267 802.277 715.118 802.823 715.118 803.542C715.118 804.27 715.267 804.821 715.566 805.194C715.865 805.567 716.294 805.754 716.854 805.754ZM729.575 799.986C730.397 799.986 731.008 800.219 731.409 800.686C731.811 801.153 732.011 801.857 732.011 802.8V807H730.261V802.898C730.261 802.366 730.159 801.979 729.953 801.736C729.757 801.493 729.445 801.372 729.015 801.372C728.511 801.372 728.105 801.531 727.797 801.848C727.499 802.165 727.349 802.59 727.349 803.122V807H725.599V797.13H727.349V801.106C727.583 800.742 727.891 800.467 728.273 800.28C728.665 800.084 729.099 799.986 729.575 799.986ZM736.911 807.112C736.211 807.112 735.595 806.967 735.063 806.678C734.54 806.389 734.134 805.973 733.845 805.432C733.556 804.891 733.411 804.261 733.411 803.542C733.411 802.823 733.556 802.198 733.845 801.666C734.134 801.125 734.54 800.709 735.063 800.42C735.595 800.131 736.211 799.986 736.911 799.986C737.611 799.986 738.222 800.131 738.745 800.42C739.277 800.709 739.683 801.125 739.963 801.666C740.252 802.198 740.397 802.823 740.397 803.542C740.397 804.261 740.252 804.891 739.963 805.432C739.683 805.973 739.277 806.389 738.745 806.678C738.222 806.967 737.611 807.112 736.911 807.112ZM736.897 805.754C737.466 805.754 737.9 805.567 738.199 805.194C738.498 804.821 738.647 804.27 738.647 803.542C738.647 802.823 738.498 802.277 738.199 801.904C737.9 801.521 737.471 801.33 736.911 801.33C736.351 801.33 735.917 801.521 735.609 801.904C735.31 802.277 735.161 802.823 735.161 803.542C735.161 804.27 735.31 804.821 735.609 805.194C735.908 805.567 736.337 805.754 736.897 805.754ZM749.976 799.986C750.75 799.986 751.329 800.219 751.712 800.686C752.094 801.143 752.286 801.848 752.286 802.8V807H750.536V802.87C750.536 802.347 750.447 801.969 750.27 801.736C750.092 801.493 749.808 801.372 749.416 801.372C748.949 801.372 748.585 801.531 748.324 801.848C748.062 802.165 747.932 802.609 747.932 803.178V807H746.182V802.87C746.182 802.347 746.093 801.969 745.916 801.736C745.748 801.493 745.463 801.372 745.062 801.372C744.604 801.372 744.245 801.531 743.984 801.848C743.722 802.165 743.592 802.609 743.592 803.178V807H741.842V800.154H743.55V801.12C743.755 800.747 744.04 800.467 744.404 800.28C744.768 800.084 745.183 799.986 745.65 799.986C746.686 799.986 747.372 800.415 747.708 801.274C747.922 800.873 748.23 800.56 748.632 800.336C749.033 800.103 749.481 799.986 749.976 799.986ZM760.07 803.892H755.408C755.464 804.527 755.656 804.998 755.982 805.306C756.309 805.614 756.776 805.768 757.382 805.768C758.138 805.768 758.829 805.525 759.454 805.04L759.958 806.244C759.641 806.505 759.24 806.715 758.754 806.874C758.278 807.033 757.798 807.112 757.312 807.112C756.192 807.112 755.306 806.795 754.652 806.16C754.008 805.525 753.686 804.657 753.686 803.556C753.686 802.856 753.826 802.235 754.106 801.694C754.386 801.153 754.778 800.733 755.282 800.434C755.796 800.135 756.374 799.986 757.018 799.986C757.961 799.986 758.703 800.289 759.244 800.896C759.795 801.503 760.07 802.338 760.07 803.402V803.892ZM757.06 801.218C756.594 801.218 756.216 801.367 755.926 801.666C755.646 801.965 755.474 802.394 755.408 802.954H758.572C758.554 802.385 758.414 801.955 758.152 801.666C757.891 801.367 757.527 801.218 757.06 801.218Z" fill="white"/>
<defs>
<filter id="filter0_f" x="428.824" y="453.703" width="657" height="219" filterUnits="userSpaceOnUse" color-interpolation-filters="sRGB">
<feFlood flood-opacity="0" result="BackgroundImageFix"/>
<feBlend mode="normal" in="SourceGraphic" in2="BackgroundImageFix" result="shape"/>
<feGaussianBlur stdDeviation="15" result="effect1_foregroundBlur"/>
</filter>
<filter id="filter1_d" x="1007.45" y="391.247" width="184.463" height="176.769" filterUnits="userSpaceOnUse" color-interpolation-filters="sRGB">
<feFlood flood-opacity="0" result="BackgroundImageFix"/>
<feColorMatrix in="SourceAlpha" type="matrix" values="0 0 0 0 0 0 0 0 0 0 0 0 0 0 0 0 0 0 127 0"/>
<feOffset dy="4"/>
<feGaussianBlur stdDeviation="8"/>
<feColorMatrix type="matrix" values="0 0 0 0 0.374547 0 0 0 0 0.481553 0 0 0 0 0.601935 0 0 0 0.2 0"/>
<feBlend mode="normal" in2="BackgroundImageFix" result="effect1_dropShadow"/>
<feBlend mode="normal" in="SourceGraphic" in2="effect1_dropShadow" result="shape"/>
</filter>
<linearGradient id="paint0_linear" x1="1055.32" y1="493.255" x2="440.824" y2="644.755" gradientUnits="userSpaceOnUse">
<stop stop-color="#F8FBFB" stop-opacity="0.6"/>
<stop offset="1" stop-color="#F8FBFB" stop-opacity="0"/>
</linearGradient>
</defs>
</svg>
